<svg width="48" height="48" viewBox="0 0 48 48" fill="none" xmlns="http://www.w3.org/2000/svg">
<path d="M36 44.5137C36 42.5883 37.5609 41.0275 39.4863 41.0275H47.6968C47.8643 41.0275 48 41.1632 48 41.3306V41.3306C48 45.014 45.014 48 41.3306 48H37.8462C36.8266 48 36 47.1735 36 46.1539V44.5137Z" fill="url(#paint0_linear_0_3)"/>
<path d="M36 0.599998H43C45.7614 0.599998 48 2.83857 48 5.6V39.8H46C40.4772 39.8 36 35.3228 36 29.8V0.599998Z" fill="white"/>
<path d="M23.8636 0.636363H33.7358V23.9318C33.7358 26.7017 33.0729 29.0987 31.7472 31.1229C30.4332 33.1352 28.5985 34.6918 26.2429 35.7926C23.8873 36.8816 21.1529 37.4261 18.0398 37.4261C14.9029 37.4261 12.1567 36.8816 9.80114 35.7926C7.44555 34.6918 5.6108 33.1352 4.29688 31.1229C2.99479 29.0987 2.34375 26.7017 2.34375 23.9318V0.636363H12.2159V23.0795C12.2159 24.2041 12.4645 25.2102 12.9616 26.098C13.4588 26.974 14.1454 27.6605 15.0213 28.1577C15.9091 28.6548 16.9152 28.9034 18.0398 28.9034C19.1761 28.9034 20.1823 28.6548 21.0582 28.1577C21.9342 27.6605 22.6207 26.974 23.1179 26.098C23.6151 25.2102 23.8636 24.2041 23.8636 23.0795V0.636363Z" fill="white"/>
<defs>
<linearGradient id="paint0_linear_0_3" x1="34.2439" y1="38.9615" x2="45.6664" y2="59.62" gradientUnits="userSpaceOnUse">
<stop stop-color="#00D1FF"/>
<stop offset="1" stop-color="#4200FF" stop-opacity="0.25"/>
</linearGradient>
</defs>
</svg>
